<?xml version="1.0" encoding="UTF-8"?>
<svg id="Calque_1" data-name="Calque 1" xmlns="http://www.w3.org/2000/svg" version="1.1" viewBox="0 0 416.6 131.5">
  <defs>
    <style>
      .cls-1 {
        font-family: AkiraExpanded-SuperBold, 'Akira Expanded';
        font-size: 40.1px;
        font-weight: 700;
      }

      .cls-1, .cls-2 {
        isolation: isolate;
      }

      .cls-1, .cls-3 {
        fill: #1d1d1b;
      }

      .cls-3, .cls-4 {
        stroke-width: 0px;
      }

      .cls-4 {
        fill: #fff;
      }
    </style>
  </defs>
  <g class="cls-2">
    <g class="cls-2">
      <text class="cls-1" transform="translate(-330.5 29.2)"><tspan x="0" y="0">NHN</tspan></text>
    </g>
  </g>
  <g>
    <path class="cls-3" d="M-318.3,77.1v-28.1h5.4l16.6,20.2h-2.6v-20.2h6.4v28.1h-5.4l-16.6-20.2h2.6v20.2h-6.4Z"/>
    <path class="cls-3" d="M-279.3,77.1h-6.5v-28.1h6.5v28.1ZM-266.1,65.6h-13.7v-5.5h13.7v5.5ZM-266.6,49h6.5v28.1h-6.5v-28.1Z"/>
    <path class="cls-3" d="M-253.4,77.1v-28.1h5.4l16.6,20.2h-2.6v-20.2h6.4v28.1h-5.4l-16.6-20.2h2.6v20.2h-6.4Z"/>
  </g>
  <polygon class="cls-3" points="-331.1 154.7 -345 137.6 -350.4 137.6 -350.4 165.7 -344 165.7 -344 148.7 -330 165.7 -324.6 165.7 -324.6 137.6 -331.1 137.6 -331.1 154.7"/>
  <polygon class="cls-3" points="-305.5 137.6 -305.5 154.7 -291.5 137.6 -286.1 137.6 -286.1 165.7 -292.6 165.7 -292.6 148.7 -306.5 165.7 -311.9 165.7 -311.9 137.6 -305.5 137.6"/>
  <g class="cls-2">
    <g class="cls-2">
      <text class="cls-1" transform="translate(-330.9 -23.8)"><tspan x="0" y="0">NHN</tspan></text>
    </g>
  </g>
  <rect class="cls-3" x="-324.6" y="148.7" width="12.7" height="5.5"/>
  <polygon class="cls-3" points="-331.1 204.4 -345 192 -350.4 192 -350.4 212.4 -344 212.4 -344 200 -330 212.4 -324.6 212.4 -324.6 192 -331.1 192 -331.1 204.4"/>
  <polygon class="cls-3" points="-305.5 192 -305.5 204.4 -291.5 192 -286.1 192 -286.1 212.4 -292.6 212.4 -292.6 200 -306.5 212.4 -311.9 212.4 -311.9 192 -305.5 192"/>
  <rect class="cls-3" x="-324.6" y="199.5" width="12.7" height="5.1"/>
  <polygon class="cls-4" points="381.7 0 291.2 80.1 291.2 0 249.5 0 249.5 48.3 167.1 48.3 167.1 0 125.4 0 125.4 80.1 34.9 0 0 0 0 132 41.6 132 41.6 51.9 132.2 132 167.1 132 167.1 81.6 249.5 81.6 249.5 132 284.4 132 375 51.9 375 132 416.6 132 416.6 0 381.7 0"/>
  <polygon class="cls-3" points="-331.1 248.9 -345 239.9 -350.4 239.9 -350.4 254.7 -344 254.7 -344 245.7 -330 254.7 -324.6 254.7 -324.6 239.9 -331.1 239.9 -331.1 248.9"/>
  <polygon class="cls-3" points="-305.5 239.9 -305.5 248.9 -291.5 239.9 -286.1 239.9 -286.1 254.7 -292.6 254.7 -292.6 245.7 -306.5 254.7 -311.9 254.7 -311.9 239.9 -305.5 239.9"/>
  <rect class="cls-3" x="-324.6" y="245.2" width="12.7" height="4"/>
</svg>