<?xml version="1.0" encoding="UTF-8"?>
<svg id="Calque_1" data-name="Calque 1" xmlns="http://www.w3.org/2000/svg" version="1.1" viewBox="0 0 800 192">
  <defs>
    <style>
      .cls-1 {
        fill: #010101;
        stroke-width: 0px;
      }
    </style>
  </defs>
  <path class="cls-1" d="M746.9,43.3c-31.3,0-53.1,21.7-53.1,52.8s21.8,52.8,53.1,52.8,53.1-22.2,53.1-52.8-22.3-52.8-53.1-52.8ZM746.9,139.8c-25.7,0-43.6-18-43.6-43.8s17.9-43.8,43.6-43.8,43.4,18,43.4,43.8-17.9,43.8-43.4,43.8Z"/>
  <path class="cls-1" d="M549.9,45.5l-36.5,88-25-60.4c-2-8.3-5.2-16.2-9.3-23.6h.2l-1.8-3-.6-1h0C459.1,17,428.7,0,395.2,0s-58.4,12.2-76.5,36.2h11.1c16.4-18.3,40.1-27.3,65.4-27.3s56.7,14.8,72.9,39.6l.3.4c5.6,8.7,9.6,18.2,11.9,28.5h0c0,.1,0,.2,0,.3l10.6,25.4h0s4.6,11,4.6,11l1.4,3.2,12.2,29.2h8.8l42.3-101.1h-10.2ZM481.7,105.2c-1.5,13.6-6.1,26.6-13.6,38.2-16.2,24.8-43.5,39.6-72.9,39.6s-56.3-14.6-72.5-39.1V45.5h-9.4v85.6l-64.1-85.6h-9v101.1h9.2V60.6l63.5,84.9c17.6,29.1,48.3,46.5,82.2,46.5s64-17,81.6-45.5h0l.6-1,1.8-3h-.1c3.9-7,6.9-14.5,8.9-22.2l-6.3-15.1Z"/>
  <path class="cls-1" d="M58.9,100.3c11.7-4.3,18.7-13.9,18.7-26.2s-13.5-28.5-34.4-28.5H0v8.5h43.1c15.5,0,25.2,7.8,25.2,20.3s-9.9,20.5-25.3,20.5H0v51.7h9.5v-43.2h24.7c25.2,0,36.5,12.7,36.5,41.2v2h9.5v-2c0-22.3-7.2-37.2-21.3-44.3Z"/>
  <g>
    <polygon class="cls-1" points="133 54.4 140.2 54.4 195.9 54.4 195.9 45.5 123.4 45.5 123.4 54.4 133 54.4"/>
    <polygon class="cls-1" points="133 137.7 133 99.2 192.6 99.2 192.6 90.3 140.2 90.3 133 90.3 123.4 90.3 123.4 146.5 197.5 146.5 197.5 137.7 133 137.7"/>
  </g>
  <g>
    <polygon class="cls-1" points="604.5 54.4 612.8 54.4 667.4 54.4 667.4 45.5 595 45.5 595 54.4 604.5 54.4"/>
    <polygon class="cls-1" points="604.5 137.7 604.5 99.2 664.2 99.2 664.2 90.3 612.8 90.3 604.5 90.3 595 90.3 595 146.6 669 146.6 669 137.7 604.5 137.7"/>
  </g>
</svg>