<?xml version="1.0" encoding="UTF-8"?>
<svg id="Calque_1" data-name="Calque 1" xmlns="http://www.w3.org/2000/svg" version="1.1" viewBox="0 0 800 95">
  <defs>
    <style>
      .cls-1 {
        fill: #010101;
        stroke-width: 0px;
      }
    </style>
  </defs>
  <path class="cls-1" d="M71.2,92.9h-5.1c0-27.5-11.2-40.4-36-40.4H5.1v40.4H0V2.1h38.6c20.1,0,30.2,11.2,30.2,24.8s-8,21.6-21.5,24.2c15.9,5.1,23.9,18.8,23.9,41.7ZM38.3,48.2c15.7,0,25.6-8.6,25.6-21S55.3,6.4,38.4,6.4H5.1v41.9h33.1Z"/>
  <path class="cls-1" d="M305.8,2.1v90.7h-5.6L237.3,8.8v84.1h-4.8V2.1h5.6l62.8,83.8V2.1h5Z"/>
  <path class="cls-1" d="M336,47.5c0-27.8,19.8-47.5,47.8-47.5s47.8,19.7,47.8,47.5-20,47.5-47.8,47.5-47.8-19.7-47.8-47.5ZM426.2,47.5c0-25.3-17.7-42.8-42.5-42.8s-42.6,17.5-42.6,42.8,17.8,42.8,42.6,42.8,42.5-17.4,42.5-42.8Z"/>
  <path class="cls-1" d="M543.2,2.1l-38,90.7h-5.7L461.6,2.1h5.4l35.2,85.3L537.7,2.1h5.4Z"/>
  <path class="cls-1" d="M704.4,47.5c0-27.8,19.8-47.5,47.8-47.5s47.8,19.7,47.8,47.5-20,47.5-47.8,47.5-47.8-19.7-47.8-47.5ZM794.7,47.5c0-25.3-17.7-42.8-42.5-42.8s-42.6,17.5-42.6,42.8,17.8,42.8,42.6,42.8,42.5-17.4,42.5-42.8Z"/>
  <polygon class="cls-1" points="134.8 44 134.8 6.7 179.1 6.7 179.1 2.1 129.6 2.1 129.6 44 101.3 44 101.3 48.5 129.6 48.5 129.6 92.9 180.6 92.9 180.6 88.3 134.8 88.3 134.8 48.5 202.4 48.5 202.4 44 134.8 44"/>
  <polygon class="cls-1" points="640.9 44 640.9 6.7 596.5 6.7 596.5 2.1 646 2.1 646 44 674.3 44 674.3 48.5 646 48.5 646 92.9 595 92.9 595 88.3 640.9 88.3 640.9 48.5 573.3 48.5 573.3 44 640.9 44"/>
</svg>