<?xml version="1.0" encoding="UTF-8"?>
<svg id="Calque_1" data-name="Calque 1" xmlns="http://www.w3.org/2000/svg" version="1.1" viewBox="0 0 66.7 75">
  <defs>
    <style>
      .cls-1 {
        fill: #010101;
        stroke-width: 0px;
      }
    </style>
  </defs>
  <path class="cls-1" d="M13,40.6h-6.5v30.3H-.2v-36.3h9.4l.6,1.1c.9,1.8,2,3.4,3.3,4.9Z"/>
  <path class="cls-1" d="M22.5,0c-2.4,1-4.6,2.4-6.7,4.2l-2.1,1.8H-.2V0h22.7Z"/>
  <path class="cls-1" d="M66,67.1l-10.3-16.5c-1-1.5-2.6-2.4-4.3-2.4,0,0-.2,0-.3,0-.3,0-.5,0-.7,0l-3.5-5.6s0,0,0,0c.4-.3,1.7-1.3,2-1.5,4.6-4.3,7.2-10.1,7.5-16.4.2-6.3-2-12.3-6.3-16.9,0,0-.1-.1-.2-.2,0,0,0,0,0-.1-2.4-2.4-5.2-4.3-8.2-5.5-.3,0-.5-.2-.8-.3-.2,0-.4-.1-.5-.2-.5-.2-1-.3-1.5-.4-.3,0-.5-.1-.8-.2-.3,0-.6-.1-.8-.2-.3,0-.6-.1-.9-.1-.9-.1-1.7-.2-2.6-.2-.3,0-.6,0-.9,0-3.3,0-6.4.7-9.2,1.9-.6.3-1.3.6-1.9.9-1.5.8-2.9,1.8-4.2,2.9h12.6c2.9,0,5.4.4,7.6,1.1.2,0,.4.1.6.2,7.2,2.4,12.3,9.3,12,17.2-.2,4.7-2.1,9-5.5,12.2-.2.1-.3.3-.5.4-.8.7-1.6,1.3-2.5,1.8-2.7,1.6-5.7,2.5-9,2.5s-.4,0-.6,0c-.8,0-1.5,0-2.3-.2-3.8-.6-7.2-2.5-9.9-5.3-.4-.4-.7-.7-1-1.1h-7.2c1.1,2.2,2.6,4.3,4.4,6,4.1,4,9.6,6.6,15.7,6.8.3,0,.6,0,.8,0s.6,0,.8,0c2.7,0,5.3-.6,7.7-1.6.5-.2,1.1-.4,1.6-.7l.6-.3,3.4,5.5c-.4.5-.7,1.1-.8,1.7,0,0,0,0,0,.1-.3,1.4,0,2.8.7,3.9l1.6,2.5,7.6,12.2,1.1,1.7c1,1.6,2.7,2.5,4.4,2.5h0c.9,0,1.8-.3,2.7-.8,2.4-1.5,3.2-4.8,1.7-7.2ZM62.7,70.1c0,.3-.3.6-.6.8-.2.1-.4.2-.6.2-.4,0-.8-.2-1.1-.6l-4.7-7.6-5.6-8.9c-.2-.3-.2-.6-.2-.9,0-.3.3-.6.5-.8.2-.1.4-.2.6-.2h0c.4,0,.8.2,1,.6l2.3,3.7,7.9,12.7c.2.3.2.6.2.9Z"/>
  <rect class="cls-1" x="24.8" y="23.9" width="1.8" height="5.5"/>
  <rect class="cls-1" x="29.2" y="19.4" width="1.8" height="9.9"/>
  <rect class="cls-1" x="33.6" y="21.5" width="1.8" height="7.9"/>
  <rect class="cls-1" x="38.1" y="16.3" width="1.8" height="13"/>
</svg>