<?xml version="1.0" encoding="UTF-8"?>
<svg id="Calque_1" data-name="Calque 1" xmlns="http://www.w3.org/2000/svg" version="1.1" viewBox="0 0 1000 600">
  <defs>
    <style>
      .cls-1, .cls-2, .cls-3 {
        stroke-width: 0px;
      }

      .cls-1, .cls-4 {
        fill: none;
      }

      .cls-2 {
        fill: #010101;
      }

      .cls-4 {
        stroke: #010101;
        stroke-miterlimit: 10;
      }

      .cls-3 {
        fill: #fff;
      }
    </style>
  </defs>
  <g>
    <g>
      <path class="cls-2" d="M176.2,107h-1.6c0-8.3-3.4-12.2-10.9-12.2h-7.6v12.2h-1.6v-27.5h11.7c6.1,0,9.2,3.4,9.2,7.5s-2.4,6.6-6.5,7.3c4.8,1.6,7.2,5.7,7.2,12.7ZM166.2,93.5c4.8,0,7.8-2.6,7.8-6.4s-2.6-6.3-7.7-6.3h-10.1v12.7h10Z"/>
      <path class="cls-2" d="M247.4,79.5v27.5h-1.7l-19.1-25.5v25.5h-1.5v-27.5h1.7l19,25.4v-25.4h1.5Z"/>
      <path class="cls-2" d="M256.5,93.2c0-8.4,6-14.4,14.5-14.4s14.5,6,14.5,14.4-6.1,14.4-14.5,14.4-14.5-6-14.5-14.4ZM283.9,93.2c0-7.7-5.4-13-12.9-13s-12.9,5.3-12.9,13,5.4,13,12.9,13,12.9-5.3,12.9-13Z"/>
      <path class="cls-2" d="M319.3,79.5l-11.5,27.5h-1.7l-11.5-27.5h1.7l10.7,25.9,10.7-25.9h1.7Z"/>
      <path class="cls-2" d="M368.3,93.2c0-8.4,6-14.4,14.5-14.4s14.5,6,14.5,14.4-6.1,14.4-14.5,14.4-14.5-6-14.5-14.4ZM395.6,93.2c0-7.7-5.4-13-12.9-13s-12.9,5.3-12.9,13,5.4,13,12.9,13,12.9-5.3,12.9-13Z"/>
      <polygon class="cls-2" points="195.5 92.2 195.5 80.9 208.9 80.9 208.9 79.5 193.9 79.5 193.9 92.2 185.4 92.2 185.4 93.6 193.9 93.6 193.9 107 209.4 107 209.4 105.6 195.5 105.6 195.5 93.6 216 93.6 216 92.2 195.5 92.2"/>
      <polygon class="cls-2" points="349 92.2 349 80.9 335.5 80.9 335.5 79.5 350.5 79.5 350.5 92.2 359.1 92.2 359.1 93.6 350.5 93.6 350.5 107 335.1 107 335.1 105.6 349 105.6 349 93.6 328.5 93.6 328.5 92.2 349 92.2"/>
    </g>
    <g>
      <path class="cls-2" d="M169.1,344.7c4.1-.8,6.6-3.7,6.6-7.4s-3.1-7.6-9.3-7.6h-11.8v27.8h1.6v-12.4h7.7c7.6,0,11,3.9,11,12.4h1.6c0-7-2.5-11.2-7.3-12.8ZM156.2,343.9v-12.8h10.2c5.2,0,7.8,2.9,7.8,6.4s-3,6.5-7.8,6.5h-10.2Z"/>
      <path class="cls-2" d="M382.6,329c-8.6,0-14.7,6-14.7,14.6s6.1,14.6,14.7,14.6,14.7-6,14.7-14.6-6.1-14.6-14.7-14.6ZM382.6,356.8c-7.6,0-13.1-5.4-13.1-13.1s5.5-13.1,13.1-13.1,13,5.4,13,13.1-5.5,13.1-13,13.1Z"/>
      <polygon class="cls-1" points="246.4 343.9 246.4 343.9 237.8 343.9 237.8 343.9 246.4 343.9"/>
      <polygon class="cls-1" points="319.4 343.9 319.4 343.9 309.6 343.9 309.6 343.9 319.4 343.9"/>
      <path class="cls-1" d="M289.5,343.9h0s-26.1,0-26.1,0h0s26.1,0,26.1,0Z"/>
      <rect class="cls-2" x="246.4" y="329.7" width="1.5" height="11.7"/>
      <polygon class="cls-2" points="235.9 341.4 234.1 341.4 226.9 331.7 226.9 341.4 225.4 341.4 225.4 329.7 227.1 329.7 235.9 341.4"/>
      <polygon class="cls-2" points="237.8 343.9 236 343.9 236 343.9 237.8 343.9 237.8 343.9"/>
      <rect class="cls-2" x="246.4" y="343.9" width="1.5" height="0"/>
      <polygon class="cls-2" points="246.4 345.1 247.9 345.1 247.9 357.5 246.2 357.5 236.9 345.1 238.7 345.1 246.4 355.4 246.4 345.1"/>
      <rect class="cls-2" x="225.4" y="343.9" width="1.5" height="0"/>
      <rect class="cls-2" x="225.4" y="345.1" width="1.5" height="12.4"/>
      <path class="cls-2" d="M291,341.4h-1.6c0-.3-.1-.7-.2-1,0-.1,0-.3,0-.4,0,0,0,0,0,0,0-.2,0-.3-.1-.5,0-.1,0-.3-.1-.4,0-.1,0-.3-.1-.4,0-.1-.1-.3-.2-.4,0-.2-.1-.4-.2-.6,0-.2-.2-.4-.3-.5,0-.2-.2-.3-.3-.5-.2-.4-.4-.7-.7-1-.1-.1-.2-.3-.3-.4-1.3-1.6-3-2.9-5-3.7-.4-.1-.7-.3-1.1-.4-.2,0-.4-.1-.6-.2-.2,0-.5-.1-.7-.2-.2,0-.3,0-.5,0-.2,0-.3,0-.5,0-.1,0-.3,0-.4,0-.1,0-.2,0-.3,0,0,0-.1,0-.2,0-.3,0-.7,0-1.1,0s-.7,0-1,0c0,0-.1,0-.2,0-.1,0-.2,0-.3,0-.1,0-.2,0-.4,0-.2,0-.3,0-.5,0-.2,0-.3,0-.5,0-.2,0-.5,0-.7.2-.2,0-.4.1-.6.2-.2,0-.4.1-.6.2-.2,0-.4.1-.5.2-.8.3-1.6.8-2.4,1.3-.2.1-.3.2-.5.3-.2.1-.3.2-.5.4-.1.1-.3.2-.4.4-1,1-1.9,2.1-2.6,3.4,0,.1-.1.3-.2.4,0,.2-.2.4-.2.6,0,.1-.1.3-.2.4,0,.1-.1.3-.1.4,0,.1,0,.3-.1.4,0,.1,0,.3-.1.5,0,.1,0,.2,0,.4,0,.1,0,.3-.1.5,0,.2,0,.4-.1.7h-1.6c.9-7.3,6.7-12.4,14.5-12.4s13.5,5,14.5,12.4Z"/>
      <path class="cls-2" d="M263.4,343.9h-1.6s1.6,0,1.6,0h0Z"/>
      <path class="cls-2" d="M289.5,345.1h1.6c-.7,7.7-6.6,13.1-14.6,13.1s-13.9-5.3-14.6-13.1h1.6v.5c.1.6.2,1.2.4,1.7,0,.2,0,.3.1.5,0,.2.1.5.2.7,0,.2.1.4.2.6,0,.2.2.4.3.6,0,.2.2.3.2.5.6,1.1,1.3,2.1,2.2,2.9.1.1.3.3.4.4.1.1.2.2.4.3.6.5,1.3,1,2,1.3.2.1.3.2.5.3.3.1.6.3.8.4.2,0,.4.1.6.2,0,0,0,0,0,0,.2,0,.4.1.6.2.3,0,.6.2.9.2.2,0,.4,0,.6.1.2,0,.3,0,.5,0,.2,0,.5,0,.7,0,.5,0,.9,0,1.4,0s.9,0,1.3,0c0,0,0,0,0,0,.2,0,.4,0,.7,0,.2,0,.4,0,.7-.1.4,0,.9-.2,1.3-.3.2,0,.4-.1.6-.2.3-.1.6-.2.9-.3.2,0,.3-.1.5-.2,0,0,0,0,.1,0,.2,0,.3-.2.5-.2.2,0,.3-.2.5-.3.2,0,.3-.2.5-.3,0,0,0,0,0,0,.1-.1.3-.2.4-.3.2-.2.4-.3.6-.5,0,0,.2-.1.3-.2.1-.1.3-.3.4-.4,1-.9,1.8-2,2.4-3.3,0-.1.1-.3.2-.4.1-.2.2-.5.3-.7,0-.2.1-.4.2-.6,0-.1,0-.3.1-.4,0-.1,0-.2,0-.3,0-.1,0-.3.1-.4,0-.2,0-.4.1-.5,0,0,0-.1,0-.2,0-.2,0-.3,0-.5,0,0,0,0,0,0,0-.2,0-.4,0-.6Z"/>
      <path class="cls-2" d="M291.2,343.9h0s-1.6,0-1.6,0h0s1.6,0,1.6,0Z"/>
      <polygon class="cls-2" points="327 329.7 322.1 341.4 320.5 341.4 325.3 329.7 327 329.7"/>
      <polygon class="cls-2" points="308.5 341.4 306.9 341.4 302 329.7 303.7 329.7 308.5 341.4"/>
      <polygon class="cls-2" points="309.6 343.9 307.9 343.9 307.9 343.9 309.6 343.9 309.6 343.9"/>
      <polygon class="cls-2" points="318.9 345.1 320.6 345.1 315.4 357.5 313.6 357.5 308.4 345.1 310 345.1 314.5 355.9 318.9 345.1"/>
      <polygon class="cls-2" points="321 343.9 321 343.9 319.4 343.9 319.4 343.9 321 343.9"/>
      <polygon class="cls-2" points="206.7 329.7 206.7 331.1 193.1 331.1 193.1 341.4 191.5 341.4 191.5 329.7 206.7 329.7"/>
      <rect class="cls-2" x="191.5" y="343.9" width="1.6" height="0"/>
      <polygon class="cls-2" points="207.2 356.1 207.2 357.5 191.5 357.5 191.5 345.1 193.1 345.1 193.1 356.1 207.2 356.1"/>
      <rect class="cls-2" x="339.5" y="343.9" width="1.6" height="0"/>
      <polygon class="cls-2" points="355.1 356.1 355.1 357.5 339.5 357.5 339.5 345.1 341.1 345.1 341.1 356.1 355.1 356.1"/>
      <polygon class="cls-2" points="354.7 329.7 354.7 331.1 341.1 331.1 341.1 341.4 339.5 341.4 339.5 329.7 354.7 329.7"/>
      <rect class="cls-2" x="182.8" y="342.6" width="179" height="1.4"/>
    </g>
    <g>
      <path class="cls-2" d="M176.5,225.7h-1.6c0-8.5-3.4-12.4-11.1-12.4h-7.7v12.4h-1.6v-27.9h11.9c6.2,0,9.3,3.4,9.3,7.6s-2.5,6.6-6.6,7.4c4.9,1.6,7.3,5.8,7.3,12.8ZM166.4,212c4.8,0,7.9-2.7,7.9-6.5s-2.6-6.4-7.8-6.4h-10.2v12.9h10.2Z"/>
      <path class="cls-2" d="M367.9,211.7c0-8.6,6.1-14.6,14.7-14.6s14.7,6,14.7,14.6-6.1,14.6-14.7,14.6-14.7-6-14.7-14.6ZM395.6,211.7c0-7.8-5.4-13.2-13.1-13.2s-13.1,5.4-13.1,13.2,5.5,13.2,13.1,13.2,13.1-5.3,13.1-13.2Z"/>
      <path class="cls-1" d="M276.7,198.6c-7.3,0-12.6,4.9-13.1,12.1h26.1c-.5-7.2-5.8-12.1-13-12.1Z"/>
      <polygon class="cls-1" points="246.6 223.6 246.6 212.1 238 212.1 246.6 223.6"/>
      <polygon class="cls-1" points="314.8 224 319.7 212.1 309.8 212.1 314.8 224"/>
      <polygon class="cls-1" points="227 210.7 235.1 210.7 227 199.8 227 210.7"/>
      <path class="cls-1" d="M276.7,224.9c7.4,0,12.9-5.2,13.1-12.8h-26.1c.2,7.5,5.6,12.8,13.1,12.8Z"/>
      <rect class="cls-2" x="246.6" y="197.8" width="1.5" height="12.9"/>
      <polygon class="cls-2" points="227 199.8 235.1 210.7 236.9 210.7 227.3 197.8 225.5 197.8 225.5 210.7 227 210.7 227 199.8"/>
      <polygon class="cls-2" points="246.6 223.6 238 212.1 236.2 212.1 246.4 225.7 248.1 225.7 248.1 212.1 246.6 212.1 246.6 223.6"/>
      <rect class="cls-2" x="225.5" y="212.1" width="1.5" height="13.6"/>
      <path class="cls-2" d="M276.7,198.6c7.3,0,12.5,4.9,13,12.1h1.6c-.5-8-6.5-13.5-14.6-13.5s-14.2,5.5-14.6,13.5h1.6c.5-7.2,5.8-12.1,13.1-12.1Z"/>
      <path class="cls-2" d="M276.7,224.9c-7.5,0-12.9-5.3-13.1-12.8h-1.6c.2,8.4,6.2,14.3,14.7,14.3s14.5-5.9,14.7-14.3h-1.6c-.2,7.6-5.6,12.8-13.1,12.8Z"/>
      <polygon class="cls-2" points="327.3 197.8 325.7 197.8 320.3 210.7 321.9 210.7 327.3 197.8"/>
      <polygon class="cls-2" points="303.9 197.8 302.3 197.8 307.6 210.7 309.3 210.7 303.9 197.8"/>
      <polygon class="cls-2" points="314.8 224 309.8 212.1 308.2 212.1 313.9 225.7 315.7 225.7 321.4 212.1 319.7 212.1 314.8 224"/>
      <polygon class="cls-3" points="319.7 212.1 320.3 210.7 309.3 210.7 309.8 212.1 319.7 212.1"/>
      <polygon class="cls-3" points="227 210.7 227 212.1 236.2 212.1 235.1 210.7 227 210.7"/>
      <polygon class="cls-3" points="246.6 212.1 246.6 210.7 236.9 210.7 238 212.1 246.6 212.1"/>
      <polygon class="cls-2" points="193.2 210.7 193.2 199.2 206.8 199.2 206.8 197.8 191.6 197.8 191.6 210.7 182.9 210.7 182.9 212.1 191.6 212.1 191.6 225.7 207.3 225.7 207.3 224.3 193.2 224.3 193.2 212.1 225.5 212.1 225.5 210.7 193.2 210.7"/>
      <path class="cls-2" d="M262.1,210.7h-14v1.4h14c0-.1,0-.2,0-.3,0-.4,0-.7,0-1.1Z"/>
      <path class="cls-3" d="M263.6,211.7c0,.1,0,.2,0,.3h26.1c0-.1,0-.2,0-.3,0-.4,0-.7,0-1.1h-26.1c0,.4,0,.7,0,1.1Z"/>
      <path class="cls-2" d="M291.4,210.7c0,.4,0,.7,0,1.1s0,.2,0,.3h16.8l-.6-1.4h-16.3Z"/>
      <polygon class="cls-2" points="321.9 210.7 321.4 212.1 331.1 212.1 331.1 210.7 321.9 210.7"/>
      <polygon class="cls-2" points="236.9 210.7 235.1 210.7 236.2 212.1 238 212.1 236.9 210.7"/>
      <rect class="cls-2" x="246.6" y="210.7" width="1.5" height="1.4"/>
      <rect class="cls-2" x="225.5" y="210.7" width="1.5" height="1.4"/>
      <path class="cls-2" d="M263.6,211.7c0-.4,0-.7,0-1.1h-1.6c0,.4,0,.7,0,1.1s0,.2,0,.3h1.6c0-.1,0-.2,0-.3Z"/>
      <path class="cls-2" d="M291.4,210.7h-1.6c0,.4,0,.7,0,1.1s0,.2,0,.3h1.6c0-.1,0-.2,0-.3,0-.4,0-.7,0-1.1Z"/>
      <polygon class="cls-2" points="309.3 210.7 307.6 210.7 308.2 212.1 309.8 212.1 309.3 210.7"/>
      <polygon class="cls-2" points="320.3 210.7 319.7 212.1 321.4 212.1 321.9 210.7 320.3 210.7"/>
      <polygon class="cls-2" points="362.2 212.1 362.2 210.7 341.4 210.7 341.4 199.2 355.1 199.2 355.1 197.8 339.8 197.8 339.8 210.7 338.4 210.7 338.4 212.1 339.8 212.1 339.8 225.7 355.5 225.7 355.5 224.3 341.4 224.3 341.4 212.1 362.2 212.1"/>
      <rect class="cls-2" x="331.1" y="210.7" width="7.3" height="1.4"/>
    </g>
    <line class="cls-4" x1="275.9" y1="137.3" x2="275.9" y2="171.6"/>
    <line class="cls-4" x1="275.9" y1="262.4" x2="275.9" y2="296.7"/>
  </g>
  <g>
    <g>
      <path class="cls-2" d="M830.8,328.8c-8.5,0-14.6,6-14.6,14.5s6,14.5,14.6,14.5,14.6-6,14.6-14.5-6.1-14.5-14.6-14.5ZM830.8,356.3c-7.6,0-13-5.4-13-13.1s5.4-13.1,13-13.1,13,5.4,13,13.1-5.5,13.1-13,13.1Z"/>
      <path class="cls-2" d="M755.8,343.1l1.3,3c-.4,4-1.7,7.7-3.7,10.9h-1.7c2.6-4,4.1-8.7,4.1-13.9h0Z"/>
      <path class="cls-2" d="M757.2,342.6h0c0,0-1.9-4.6-1.9-4.6,0,0,0-.1,0-.2l2,4.8Z"/>
      <path class="cls-2" d="M776.6,329.4l-11.6,27.7h-1.8l-6-14.5-2-4.8c-.7-3-1.9-5.8-3.5-8.3,0,0,0,0,0-.1h1.7c1.4,2.3,2.4,4.8,3.1,7.5l7.7,18.6,10.8-26h1.7Z"/>
      <path class="cls-2" d="M751.7,357.1h1.7c-4.7,7.8-13.2,13-23,13s-9.4-1.3-13.4-3.6c-3.9-2.3-7.3-5.5-9.6-9.4l-19.2-25.7v25.7h-1.5v-27.7h1.7l19.2,25.6v-25.6h1.5v27.7c4.5,7,12.4,11.6,21.3,11.6s16.8-4.6,21.3-11.6Z"/>
      <path class="cls-2" d="M710.2,327.9h-1.6c4.8-6.9,12.7-11.5,21.8-11.5s18.3,5.2,23,13h-1.7c-4.5-7-12.4-11.6-21.3-11.6s-8.6,1.1-12.3,3.2c-3.1,1.7-5.8,4.1-7.9,6.9Z"/>
      <g>
        <polygon class="cls-2" points="654.9 330.8 655.7 330.8 672.9 330.8 672.9 329.4 653.4 329.4 653.4 330.8 654.9 330.8"/>
        <polygon class="cls-2" points="654.9 355.7 654.9 343.6 672 343.6 672 342.2 655.7 342.2 654.9 342.2 653.4 342.2 653.4 357.1 673.4 357.1 673.4 355.7 654.9 355.7"/>
      </g>
      <g>
        <polygon class="cls-2" points="806.4 330.8 805.3 330.8 788.5 330.8 788.5 329.4 808 329.4 808 330.8 806.4 330.8"/>
        <polygon class="cls-2" points="806.4 355.7 806.4 343.6 789.4 343.6 789.4 342.2 805.3 342.2 806.4 342.2 808 342.2 808 357.1 788 357.1 788 355.7 806.4 355.7"/>
      </g>
      <path class="cls-2" d="M632.6,344.4c4.1-.8,6.6-3.6,6.6-7.4s-3.1-7.6-9.2-7.6h-11.8v1.3h11.7c5.2,0,7.8,2.9,7.8,6.4s-3,6.4-7.8,6.4h-11.7v13.6h1.6v-12.3h7.6c7.6,0,11,3.9,11,12.3h1.6c0-7-2.4-11.2-7.3-12.7Z"/>
    </g>
    <g>
      <path class="cls-2" d="M638.1,94.3c4.2-.8,6.7-3.7,6.7-7.5s-3.1-7.7-9.4-7.7h-12v28.2h1.6v-12.6h7.8c7.7,0,11.2,4,11.2,12.6h1.6c0-7.1-2.5-11.4-7.4-13ZM624.9,93.5v-13h10.3c5.3,0,7.9,2.9,7.9,6.5s-3.1,6.5-7.9,6.5h-10.3Z"/>
      <path class="cls-2" d="M656.5,105.9v-12.4h17.3v-1.4h-17.3v-11.6h18.3v-1.4h-19.9v28.2h20.4v-1.4h-18.8Z"/>
      <path class="cls-2" d="M693.5,89.2c0,.7-.1,1.4-.2,2.2l1.4,1.9c0-.8,0-1.5,0-2.3l-1.3-1.7ZM684.2,79.1v28.2h1.5v-26.1l6.3,8.4c0-.7.1-1.4.3-2.1l-6.3-8.4h-1.7ZM705.4,79.1v26l-9.3-12.4c0,.1,0,.3,0,.4,0,.7,0,1.4,0,2.1l9,12h1.7v-28.2h-1.5Z"/>
      <path class="cls-2" d="M761.9,105.6l-.7-1.7c-.2.7-.5,1.4-.8,2.1l.6,1.4h.4c.6-1.3,1.1-2.7,1.5-4.1l-1,2.4ZM772.9,79.1l-7.2,17.5c-.2,2.5-.7,4.9-1.4,7.2l10.3-24.7h-1.7ZM750.9,79.1h-1.7l10.3,24.8c.3-.7.5-1.5.7-2.2l-9.3-22.6Z"/>
      <path class="cls-2" d="M784.3,105.9v-12.4h17.3v-1.4h-17.3v-11.6h18.3v-1.4h-19.9v28.2h20.4v-1.4h-18.8Z"/>
      <path class="cls-2" d="M825.3,78.5c-8.7,0-14.9,6.1-14.9,14.8s6.2,14.8,14.9,14.8,14.9-6.1,14.9-14.8-6.2-14.8-14.9-14.8ZM825.3,106.5c-7.7,0-13.3-5.5-13.3-13.3s5.6-13.3,13.3-13.3,13.2,5.5,13.2,13.3-5.6,13.3-13.2,13.3Z"/>
      <path class="cls-3" d="M728.8,57.7c-18.3,0-33.3,13.8-35.3,31.5,0,.7-.1,1.4-.2,2.2,0,.6,0,1.2,0,1.9,0,19.6,15.9,35.5,35.5,35.5s27.2-8.8,32.6-21.4c.6-1.3,1.1-2.7,1.5-4.1.9-3.2,1.4-6.5,1.4-10,0-19.6-15.9-35.5-35.5-35.5ZM761.1,103.9c-.2.7-.5,1.4-.8,2.1-5.1,12.5-17.3,21.4-31.6,21.4s-34.1-15.3-34.1-34.1h0c0-.8,0-1.5,0-2.3,1.2-17.7,16-31.8,34-31.8s34.1,15.3,34.1,34.1-.6,7.3-1.7,10.7Z"/>
      <path class="cls-2" d="M728.8,57.7c-18.3,0-33.3,13.8-35.3,31.5,0,.7-.1,1.4-.2,2.2,0,.6,0,1.2,0,1.9,0,19.6,15.9,35.5,35.5,35.5s27.2-8.8,32.6-21.4c.6-1.3,1.1-2.7,1.5-4.1.9-3.2,1.4-6.5,1.4-10,0-19.6-15.9-35.5-35.5-35.5ZM761.1,103.9c-.2.7-.5,1.4-.8,2.1-5.1,12.5-17.3,21.4-31.6,21.4s-34.1-15.3-34.1-34.1h0c0-.8,0-1.5,0-2.3,1.2-17.7,16-31.8,34-31.8s34.1,15.3,34.1,34.1-.6,7.3-1.7,10.7Z"/>
    </g>
    <g>
      <path class="cls-2" d="M638.2,212.5c3.2-1.2,5.1-3.8,5.1-7.2s-3.7-7.8-9.4-7.8h-11.9v27.7h2.6v-11.8h6.8c6.9,0,10,3.5,10,11.3v.5h2.6v-.5c0-6.1-2-10.2-5.9-12.1ZM624.6,211v-11.2h9.2c4.3,0,6.9,2.1,6.9,5.6s-2.7,5.6-6.9,5.6h-9.2Z"/>
      <polygon class="cls-2" points="658.5 212.2 658.5 222.8 676.2 222.8 676.2 225.2 655.9 225.2 655.9 197.5 675.8 197.5 675.8 199.9 658.5 199.9 658.5 209.8 685.7 209.8 685.7 212.2 658.5 212.2"/>
      <polygon class="cls-2" points="787.9 212.2 804.2 212.2 804.2 209.8 787.9 209.8 787.9 199.9 805.1 199.9 805.1 197.5 785.2 197.5 785.2 225.2 805.6 225.2 805.6 222.8 787.9 222.8 787.9 212.2"/>
      <path class="cls-2" d="M826.9,196.9c-8.6,0-14.6,6-14.6,14.5s6,14.5,14.6,14.5,14.6-6.1,14.6-14.5-6.1-14.5-14.6-14.5ZM826.9,223.3c-7,0-12-4.9-12-12s4.9-12,12-12,11.9,4.9,11.9,12-4.9,12-11.9,12Z"/>
      <polygon class="cls-2" points="768 209.8 770.5 209.8 769.5 212.2 768 212.2 768 209.8"/>
      <polygon class="cls-2" points="804.2 209.8 804.2 212.2 771.2 212.2 772.2 209.8 804.2 209.8"/>
      <rect class="cls-3" x="687.9" y="208.9" width="2.5" height="4.1"/>
      <polygon class="cls-3" points="698.9 208.9 702 213 699 213 695.9 208.9 698.9 208.9"/>
      <rect class="cls-3" x="708" y="208.9" width="2.6" height="4.1"/>
      <polygon class="cls-3" points="754.2 213.8 754.2 213.9 754.2 213.9 754.2 213.8"/>
      <polygon class="cls-3" points="756.9 207.3 759.7 213.9 756.9 213.9 756.7 213.3 754.2 207.3 756.9 207.3"/>
      <polygon class="cls-3" points="771.6 207.3 770.5 209.8 769.5 212.2 768.8 213.9 766.1 213.9 768.8 207.3 771.6 207.3"/>
      <g>
        <path class="cls-2" d="M753.5,224.1h0l-.5.8-.2.3h0c-4.8,7.8-13.2,12.5-22.4,12.5s-17.7-4.8-22.6-12.7l-8.9-11.9-3.1-4.1-5.4-7.3v23.6h-2.5v-27.7h2.5l8.6,11.4,3.1,4.1,5.9,7.9v-23.5h2.6v27c4.5,6.7,11.9,10.7,19.9,10.7s15.6-4.1,20-10.9c2.1-3.2,3.3-6.8,3.7-10.5h0s0,0,0,0l1.7,4.1c-.6,2.1-1.4,4.2-2.4,6.1Z"/>
        <path class="cls-2" d="M775.7,197.5l-4.1,9.8-1,2.4-1,2.4-.7,1.7-4.8,11.4h-2.4l-4.7-11.4-.2-.6-2.5-6-.4-1s0,0,0,0h0c-.6-2.8-1.7-5.4-3.3-7.8h0c-4.4-6.9-11.9-11-20-11s-13.4,2.5-17.9,7.5h-3c4.9-6.6,12.6-9.9,21-9.9s17.5,4.7,22.4,12.5h0l.2.3.5.8h0c1.1,2,2,4.2,2.6,6.5l.9,2.3,2.7,6.5,3.2,7.8,3.2-7.8,2.7-6.5,4.1-9.8h2.8Z"/>
      </g>
    </g>
    <line class="cls-4" x1="731" y1="143.2" x2="731" y2="168.9"/>
    <line class="cls-4" x1="731" y1="267" x2="731" y2="292.9"/>
  </g>
  <g>
    <path class="cls-2" d="M668.9,469.3c-15.2,0-25.9,10.6-25.9,25.7s10.6,25.7,25.9,25.7,25.9-10.8,25.9-25.7-10.9-25.7-25.9-25.7ZM668.9,516.4c-12.5,0-21.2-8.8-21.2-21.3s8.7-21.3,21.2-21.3,21.2,8.8,21.2,21.3-8.7,21.3-21.2,21.3Z"/>
    <path class="cls-2" d="M573,470.5l-17.8,42.8-12.2-29.4c-1-4-2.5-7.9-4.5-11.5l-1.1-2c-8.6-13.9-23.4-22.2-39.7-22.2s-28.5,5.9-37.2,17.7h5.4c8-8.9,19.5-13.3,31.8-13.3s27.6,7.2,35.5,19.3v.2c2.8,4.2,4.8,8.9,5.9,13.9,0,0,0,.1,0,.2l5.2,12.4,2.9,6.9h0l5.9,14.2h4.3l20.6-49.2h-5Z"/>
    <path class="cls-2" d="M539.8,499.5c-.7,6.6-3,13-6.6,18.6-7.9,12.1-21.2,19.3-35.5,19.3s-27.4-7.1-35.3-19.1v-47.9h-4.6v41.7l-31.2-41.7h-4.4v49.2h4.5v-41.8l31,41.3c8.5,14.2,23.5,22.6,40,22.6s31.1-8.3,39.7-22.2l.3-.5.8-1.5c1.9-3.4,3.4-7.1,4.3-10.9l-3.1-7.3Z"/>
    <path class="cls-2" d="M333.9,497.1c5.7-2.1,9.1-6.8,9.1-12.8s-6.6-13.9-16.7-13.9h-21.1v4.2h21c7.6,0,12.3,3.8,12.3,9.9s-4.8,10-12.3,10h-20.9v25.2h4.6v-21h12c12.3,0,17.8,6.2,17.8,20v1h4.6v-1c0-10.9-3.5-18.1-10.4-21.6Z"/>
    <g>
      <polygon class="cls-2" points="370 474.7 373.5 474.7 400.6 474.7 400.6 470.4 365.3 470.4 365.3 474.7 370 474.7"/>
      <polygon class="cls-2" points="370 515.3 370 496.6 399 496.6 399 492.2 373.5 492.2 370 492.2 365.3 492.2 365.3 519.6 401.4 519.6 401.4 515.3 370 515.3"/>
    </g>
    <g>
      <polygon class="cls-2" points="599.6 474.8 603.6 474.8 630.2 474.8 630.2 470.5 594.9 470.5 594.9 474.8 599.6 474.8"/>
      <polygon class="cls-2" points="599.6 515.3 599.6 496.6 628.6 496.6 628.6 492.3 603.6 492.3 599.6 492.3 594.9 492.3 594.9 519.7 631 519.7 631 515.3 599.6 515.3"/>
    </g>
  </g>
</svg>