<?xml version="1.0" encoding="UTF-8"?>
<svg id="Calque_1" data-name="Calque 1" xmlns="http://www.w3.org/2000/svg" version="1.1" viewBox="0 0 800 96">
  <defs>
    <style>
      .cls-1 {
        fill: none;
      }

      .cls-1, .cls-2 {
        stroke-width: 0px;
      }

      .cls-2 {
        fill: #010101;
      }
    </style>
  </defs>
  <path class="cls-2" d="M47.9,51.7c13.6-2.6,21.7-12.1,21.7-24.5S59.4,2.1,39,2.1H0v91.8h5.2v-40.9h25.2c25.1,0,36.4,13,36.4,40.9h5.2c0-23.3-8.1-37-24.2-42.2ZM5.2,48.8V6.4h33.7c17.1,0,25.7,9.5,25.7,21.1s-10,21.3-25.9,21.3H5.2Z"/>
  <path class="cls-2" d="M751.6,0c-28.3,0-48.4,19.9-48.4,48s20,48,48.4,48,48.4-19.9,48.4-48S779.8,0,751.6,0ZM751.6,91.4c-25.1,0-43.2-17.9-43.2-43.3s18.1-43.3,43.2-43.3,43,17.8,43,43.3-18.2,43.3-43,43.3Z"/>
  <polygon class="cls-1" points="302.6 49.1 302.6 49.1 274.3 49.1 274.3 49.1 302.6 49.1"/>
  <polygon class="cls-1" points="543.4 49.1 543.4 49.1 510.9 49.1 510.9 49.1 543.4 49.1"/>
  <rect class="cls-1" x="358.8" y="49.1" width="86.1" height="0"/>
  <rect class="cls-2" x="302.6" y="2.1" width="5" height="35.5"/>
  <polygon class="cls-2" points="265.7 37.6 259.8 37.6 238.3 8.9 238.3 37.6 233.4 37.6 233.4 2.1 239.1 2.1 265.7 37.6"/>
  <polygon class="cls-2" points="274.3 49.1 268.5 49.1 268.4 49.1 274.3 49.1 274.3 49.1"/>
  <rect class="cls-2" x="302.6" y="49.1" width="5" height="0"/>
  <polygon class="cls-2" points="307.6 56 307.6 93.9 302 93.9 273.6 56 279.5 56 302.6 86.8 302.6 56 307.6 56"/>
  <rect class="cls-2" x="233.4" y="49.1" width="4.9" height="0"/>
  <rect class="cls-2" x="233.4" y="56" width="4.9" height="37.9"/>
  <path class="cls-2" d="M449.2,37.6h-5.4c-4.2-19.8-20.4-32.9-41.9-32.9s-37.8,13.1-42,32.9h-5.3C358.9,15.1,377.2,0,401.9,0s43,15.1,47.3,37.6Z"/>
  <rect class="cls-2" x="353.6" y="49.1" width="5.2" height="0"/>
  <path class="cls-2" d="M449.7,56c-3.5,23.8-22.3,40-47.7,40s-44.3-16.2-47.8-40h5.3c3.4,21.1,20.1,35.3,42.5,35.3s39-14,42.3-35.3h5.4Z"/>
  <rect class="cls-2" x="444.9" y="49.1" width="5.3" height="0"/>
  <polygon class="cls-2" points="568.4 2.1 553.6 37.6 548.2 37.6 562.9 2.1 568.4 2.1"/>
  <polygon class="cls-2" points="506.1 37.6 500.7 37.6 486 2.1 491.5 2.1 506.1 37.6"/>
  <polygon class="cls-2" points="510.9 49.1 505.6 49.1 505.5 49.1 510.9 49.1 510.9 49.1"/>
  <polygon class="cls-2" points="545.9 56 530 93.9 524.2 93.9 508.4 56 513.7 56 527.1 88.4 540.6 56 545.9 56"/>
  <polygon class="cls-2" points="548.8 49.1 548.7 49.1 543.4 49.1 543.4 49.1 548.8 49.1"/>
  <polygon class="cls-2" points="171.8 2.1 171.8 6.7 126.9 6.7 126.9 37.6 121.7 37.6 121.7 2.1 171.8 2.1"/>
  <rect class="cls-2" x="121.7" y="49.1" width="5.2" height="0"/>
  <polygon class="cls-2" points="173.3 89.3 173.3 93.9 121.7 93.9 121.7 56 126.9 56 126.9 89.3 173.3 89.3"/>
  <rect class="cls-2" x="656" y="49.1" width="5.2" height="0"/>
  <polygon class="cls-2" points="656 56 661.2 56 661.2 93.9 609.6 93.9 609.6 89.3 656 89.3 656 56"/>
  <polygon class="cls-2" points="661.2 2.1 661.2 37.6 656 37.6 656 6.7 611.1 6.7 611.1 2.1 661.2 2.1"/>
  <rect class="cls-2" x="93.1" y="44.5" width="590.1" height="4.6"/>
</svg>